<?xml version="1.0" encoding="iso-8859-1"?>
<!-- Generator: Adobe Illustrator 19.0.0, SVG Export Plug-In . SVG Version: 6.00 Build 0)  -->
<svg version="1.1" id="Capa_1" xmlns="http://www.w3.org/2000/svg" xmlns:xlink="http://www.w3.org/1999/xlink" x="0px" y="0px"
	 viewBox="0 0 512 512" style="enable-background:new 0 0 512 512;" xml:space="preserve">
<path style="fill:#FFBB4A;" d="M278.885,281.268c0-6.694,4.268-12.642,10.607-14.787l12.594-4.26v-41.953H108.358
	c-10.629,0-19.248,8.618-19.248,19.248v62.773h189.774v-21.021H278.885z"/>
<g>
	<path style="fill:#FF9F3D;" d="M125.888,261.398c-1.92,0-3.84-0.732-5.305-2.198c-2.928-2.93-2.927-7.679,0.003-10.607
		c9.178-9.174,24.11-9.175,33.288,0.001c2.93,2.929,2.93,7.677,0.001,10.607c-2.928,2.93-7.677,2.93-10.606,0.001
		c-3.331-3.329-8.748-3.329-12.079,0.001C129.726,260.667,127.807,261.398,125.888,261.398z"/>
	<path style="fill:#FF9F3D;" d="M183.52,274.23c-1.919,0-3.838-0.732-5.303-2.196c-2.93-2.929-2.93-7.677-0.001-10.607
		c9.176-9.176,24.11-9.179,33.29-0.001c2.929,2.929,2.93,7.677,0.001,10.606c-2.928,2.929-7.677,2.93-10.606,0.002
		c-3.329-3.329-8.748-3.33-12.077-0.001C187.359,273.498,185.439,274.23,183.52,274.23z"/>
	<path style="fill:#FF9F3D;" d="M242.98,261.398c-1.92,0-3.84-0.732-5.305-2.198c-2.928-2.93-2.927-7.679,0.003-10.607
		c9.178-9.174,24.11-9.175,33.288,0.001c2.93,2.929,2.93,7.677,0.001,10.607c-2.928,2.93-7.677,2.93-10.607,0.001
		c-3.331-3.329-8.748-3.329-12.079,0.001C246.818,260.667,244.899,261.398,242.98,261.398z"/>
</g>
<path style="fill:#EF5A50;" d="M278.885,335v-32.711H89.11v31.335c0,0.473,0.067,0.93,0.165,1.376H278.885z"/>
<path style="opacity:0.1;fill:#231F20;enable-background:new    ;" d="M116.166,335c-0.099-0.446-0.166-0.903-0.166-1.376v-94.108
	c0-10.63,8.619-19.248,19.248-19.248h-26.89c-10.629,0-19.248,8.618-19.248,19.248v94.108c0,0.473,0.067,0.93,0.165,1.376H116.166z"
	/>
<path style="fill:#FFBB4A;" d="M501.393,170.028c6.34-2.146,10.607-8.093,10.607-14.786v-79.87c0-8.621-6.989-15.609-15.609-15.609
	H452.39c8.621,0,15.61,6.988,15.61,15.609v79.87c0,6.693-4.267,12.641-10.607,14.786l-12.592,4.259v84.695l12.592,4.26
	c6.341,2.145,10.607,8.093,10.607,14.786v79.87c0,8.621-6.989,15.609-15.61,15.609h44.001c8.62,0,15.609-6.988,15.609-15.609v-79.87
	c0-6.693-4.268-12.642-10.607-14.786l-12.592-4.26v-84.695L501.393,170.028z"/>
<path style="fill:#3EAF91;" d="M460.265,170.028c6.341-2.146,10.608-8.093,10.608-14.786v-79.87c0-8.621-6.989-15.609-15.61-15.609
	H291.366c-8.62,0-15.609,6.988-15.609,15.609v79.87c0,6.693,4.268,12.641,10.607,14.786l12.594,4.26v84.695l-12.594,4.26
	c-6.34,2.146-10.607,8.093-10.607,14.787V335h86.996c10.628,0,19.247,8.618,19.247,19.248v19.26h73.262
	c8.621,0,15.61-6.988,15.61-15.609v-79.87c0-6.693-4.267-12.642-10.608-14.786l-12.592-4.26v-84.695L460.265,170.028z"/>
<g style="opacity:0.1;">
	<path style="fill:#231F20;" d="M286.364,170.028l6.311,2.135V97.921c0-8.621,6.989-15.609,15.61-15.609h162.587v-6.939
		c0-8.621-6.989-15.609-15.61-15.609H291.366c-8.62,0-15.609,6.988-15.609,15.609v79.87
		C275.757,161.936,280.024,167.883,286.364,170.028z"/>
</g>
<g>
	<path style="fill:#86D5B5;" d="M357.469,151.192c-4.143,0-7.5-3.358-7.5-7.5c0-4.472-3.638-8.109-8.109-8.109
		c-4.472,0-8.109,3.638-8.109,8.109c0,4.142-3.357,7.5-7.5,7.5s-7.5-3.358-7.5-7.5c0-12.743,10.367-23.109,23.109-23.109
		s23.109,10.367,23.109,23.109C364.969,147.835,361.611,151.192,357.469,151.192z"/>
	<path style="fill:#86D5B5;" d="M410.54,197.6c-4.143,0-7.5-3.358-7.5-7.5c0-4.472-3.638-8.109-8.108-8.109
		c-4.472,0-8.109,3.638-8.109,8.109c0,4.142-3.357,7.5-7.5,7.5s-7.5-3.358-7.5-7.5c0-12.743,10.367-23.109,23.109-23.109
		s23.108,10.367,23.108,23.109C418.04,194.242,414.683,197.6,410.54,197.6z"/>
	<path style="fill:#86D5B5;" d="M374.696,247.123c-4.143,0-7.5-3.358-7.5-7.5c0-4.472-3.638-8.109-8.108-8.109
		c-4.473,0-8.111,3.638-8.111,8.109c0,4.142-3.357,7.5-7.5,7.5s-7.5-3.358-7.5-7.5c0-12.743,10.368-23.109,23.111-23.109
		c12.742,0,23.108,10.367,23.108,23.109C382.196,243.765,378.839,247.123,374.696,247.123z"/>
	<path style="fill:#86D5B5;" d="M423.881,122.651c-4.143,0-7.5-3.358-7.5-7.5c0-4.471-3.638-8.108-8.109-8.108
		c-4.472,0-8.109,3.637-8.109,8.108c0,4.142-3.357,7.5-7.5,7.5s-7.5-3.358-7.5-7.5c0-12.742,10.367-23.108,23.109-23.108
		s23.109,10.366,23.109,23.108C431.381,119.294,428.023,122.651,423.881,122.651z"/>
	<path style="fill:#86D5B5;" d="M424.588,290.752c-4.143,0-7.5-3.358-7.5-7.5c0-4.472-3.638-8.109-8.109-8.109
		c-4.472,0-8.109,3.638-8.109,8.109c0,4.142-3.357,7.5-7.5,7.5s-7.5-3.358-7.5-7.5c0-12.743,10.367-23.109,23.109-23.109
		s23.109,10.367,23.109,23.109C432.088,287.394,428.73,290.752,424.588,290.752z"/>
	<path style="fill:#86D5B5;" d="M352.02,315.133c-4.142,0-7.5-3.358-7.5-7.5c0-4.472-3.638-8.109-8.109-8.109
		s-8.108,3.638-8.108,8.109c0,4.142-3.357,7.5-7.5,7.5s-7.5-3.358-7.5-7.5c0-12.743,10.366-23.109,23.108-23.109
		s23.109,10.367,23.109,23.109C359.52,311.775,356.162,315.133,352.02,315.133z"/>
</g>
<path style="fill:#FFBB4A;" d="M384.962,427.422v-76.371c0-10.63-8.619-19.248-19.247-19.248H19.248
	C8.619,331.803,0,340.421,0,351.051v76.371H384.962z"/>
<path style="opacity:0.1;fill:#231F20;enable-background:new    ;" d="M41.723,331.803H19.248C8.619,331.803,0,340.421,0,351.051
	v76.371h22.475v-76.371C22.475,340.421,31.094,331.803,41.723,331.803z"/>
<g>
	<path style="fill:#FF9F3D;" d="M36.776,369.778c-1.92,0-3.84-0.732-5.304-2.198c-2.929-2.929-2.928-7.678,0.001-10.607
		c9.178-9.176,24.112-9.176,33.29,0.001c2.93,2.929,2.93,7.677,0.001,10.606c-2.928,2.93-7.677,2.93-10.606,0.001
		c-3.331-3.331-8.75-3.329-12.079,0C40.614,369.046,38.695,369.778,36.776,369.778z"/>
	<path style="fill:#FF9F3D;" d="M94.408,382.61c-1.919,0-3.839-0.733-5.304-2.197c-2.929-2.929-2.929-7.678,0-10.607
		c9.178-9.178,24.113-9.178,33.291,0c2.93,2.929,2.93,7.677,0.001,10.606c-2.928,2.93-7.677,2.93-10.606,0.001
		c-3.328-3.329-8.748-3.33-12.078,0C98.247,381.878,96.327,382.61,94.408,382.61z"/>
	<path style="fill:#FF9F3D;" d="M153.869,369.778c-1.92,0-3.84-0.732-5.304-2.198c-2.929-2.929-2.928-7.678,0.001-10.607
		c9.179-9.176,24.113-9.176,33.29,0.001c2.93,2.929,2.93,7.677,0.001,10.606c-2.928,2.93-7.677,2.93-10.606,0.001
		c-3.332-3.331-8.751-3.329-12.079,0C157.707,369.046,155.788,369.778,153.869,369.778z"/>
	<path style="fill:#FF9F3D;" d="M211.501,382.61c-1.919,0-3.839-0.733-5.304-2.197c-2.929-2.929-2.929-7.678,0-10.607
		c9.178-9.178,24.113-9.178,33.291,0c2.93,2.929,2.93,7.677,0.001,10.606c-2.928,2.93-7.677,2.93-10.607,0.001
		c-3.329-3.329-8.749-3.33-12.078,0C215.34,381.878,213.42,382.61,211.501,382.61z"/>
	<path style="fill:#FF9F3D;" d="M270.962,369.778c-1.92,0-3.84-0.732-5.304-2.198c-2.929-2.929-2.928-7.678,0.001-10.607
		c9.178-9.176,24.112-9.176,33.29,0.001c2.93,2.929,2.93,7.677,0.001,10.606c-2.928,2.93-7.677,2.93-10.606,0.001
		c-3.331-3.331-8.75-3.329-12.079,0C274.8,369.046,272.881,369.778,270.962,369.778z"/>
	<path style="fill:#FF9F3D;" d="M328.594,382.61c-1.919,0-3.839-0.733-5.304-2.197c-2.929-2.929-2.929-7.678,0-10.607
		c9.178-9.176,24.112-9.178,33.29,0c2.93,2.929,2.93,7.677,0.001,10.606c-2.928,2.93-7.677,2.93-10.606,0.001
		c-3.332-3.332-8.751-3.329-12.077,0C332.433,381.878,330.513,382.61,328.594,382.61z"/>
</g>
<path style="fill:#34A1D7;" d="M0,404.759v31.334c0,3.109,2.227,5.771,5.291,6.317c4.734,0.843,7.789,2.801,10.746,4.695
	c4.126,2.64,8.021,5.132,16.04,5.132c8.018,0,11.915-2.492,16.04-5.133c3.94-2.524,8.018-5.133,16.038-5.133
	s12.095,2.608,16.038,5.134c4.125,2.64,8.02,5.132,16.04,5.132c8.017,0,11.911-2.492,16.037-5.133
	c3.942-2.524,8.018-5.133,16.035-5.133c8.021,0,12.098,2.608,16.042,5.134c4.123,2.64,8.018,5.132,16.035,5.132
	c8.018,0,11.915-2.492,16.041-5.133c3.939-2.524,8.017-5.133,16.037-5.133c8.018,0,12.096,2.608,16.04,5.134
	c4.123,2.64,8.02,5.132,16.04,5.132c8.023,0,11.918-2.494,16.043-5.136c3.945-2.522,8.02-5.13,16.04-5.13
	c8.018,0,12.095,2.607,16.038,5.131c4.125,2.641,8.02,5.135,16.042,5.135c8.025,0,11.92-2.494,16.046-5.136
	c3.942-2.522,8.02-5.13,16.037-5.13c8.021,0,12.101,2.608,16.042,5.131c4.126,2.641,8.021,5.135,16.045,5.135
	c8.025,0,11.921-2.494,16.046-5.135c2.957-1.892,6.018-3.85,10.752-4.692c3.06-0.547,5.29-3.208,5.29-6.317v-31.334L0,404.759
	L0,404.759z"/>
<g style="opacity:0.1;">
	<path style="fill:#231F20;" d="M38.512,447.105c-2.956-1.895-6.012-3.853-10.746-4.695c-3.063-0.547-5.291-3.208-5.291-6.317
		v-31.334H0v31.334c0,3.109,2.227,5.771,5.291,6.317c4.734,0.843,7.789,2.801,10.746,4.695c4.126,2.64,8.021,5.132,16.04,5.132
		c4.994,0,8.39-0.968,11.237-2.335C41.592,449.074,40.067,448.101,38.512,447.105z"/>
</g>
<g>
</g>
<g>
</g>
<g>
</g>
<g>
</g>
<g>
</g>
<g>
</g>
<g>
</g>
<g>
</g>
<g>
</g>
<g>
</g>
<g>
</g>
<g>
</g>
<g>
</g>
<g>
</g>
<g>
</g>
</svg>
