<?xml version="1.0" encoding="iso-8859-1"?>
<!-- Generator: Adobe Illustrator 19.0.0, SVG Export Plug-In . SVG Version: 6.00 Build 0)  -->
<svg version="1.1" id="Capa_1" xmlns="http://www.w3.org/2000/svg" xmlns:xlink="http://www.w3.org/1999/xlink" x="0px" y="0px"
	 viewBox="0 0 512 512" style="enable-background:new 0 0 512 512;" xml:space="preserve">
<path style="fill:#FFBB4A;" d="M488.389,292.341c0-1.7,1.39-3.091,3.09-3.091h14.369v-52.621c0-2.418-1.223-5.95-2.717-7.85
	l-43.789-55.692c-1.494-1.9-4.693-3.455-7.111-3.455h-74.212c0,0-0.014,130.46-0.019,130.582h110.389L488.389,292.341
	L488.389,292.341z"/>
<path style="opacity:0.1;fill:#231F20;enable-background:new    ;" d="M410.803,169.632h-21.859v130.217
	c0,0.123-0.014,0.243-0.019,0.365h18.233c-0.473-0.701-0.75-1.543-0.75-2.447v-123.74
	C406.408,171.61,408.385,169.632,410.803,169.632z"/>
<path style="fill:#D7F7FF;" d="M505.848,236.629c0-2.418-1.223-5.95-2.717-7.85l-22.129-28.143h-44.594
	c-2.416,0-4.395,1.978-4.395,4.396v39.749c0,2.417,1.978,4.394,4.395,4.394h69.439v-12.546H505.848z"/>
<path style="fill:#B1E8FF;" d="M481.002,200.636H452.23v48.538h53.617v-12.545c0-2.418-1.223-5.95-2.717-7.85L481.002,200.636z"/>
<path style="fill:#86D5B5;" d="M72,251.392V167.25l-72,72v74.328c0,2.833,2.318,5.151,5.151,5.151h483.238l0.001-18.515H389
	l-279.165-9.655C88.731,289.829,72,272.509,72,251.392z"/>
<path style="fill:#FFBB4A;" d="M61.968,187.646L65,173.25l-3.032-18.01L3.642,213.565C1.639,215.568,0,219.526,0,222.358v27.255
	L61.968,187.646z"/>
<path style="fill:#3EAF91;" d="M388.943,117.332c0-5.666-4.636-10.302-10.302-10.302H72.27c-5.666,0-10.302,4.636-10.302,10.302
	v182.881h326.976V117.332H388.943z"/>
<rect x="77.45" y="128.66" style="fill:#86D5B5;" width="296" height="151.86"/>
<path style="opacity:0.1;fill:#231F20;enable-background:new    ;" d="M75.857,117.332c0-5.666,4.636-10.302,10.302-10.302H72.27
	c-5.666,0-10.302,4.636-10.302,10.302v182.517c0,0.123,0.015,0.243,0.019,0.365h13.89c-0.004-0.122-0.019-0.242-0.019-0.365
	L75.857,117.332L75.857,117.332z"/>
<g>
	<path style="fill:#3EAF91;" d="M349.045,96.483h-13.02c-1.699,0-3.091,1.391-3.091,3.09v180.955h19.201V99.573
		C352.136,97.874,350.744,96.483,349.045,96.483z"/>
	<path style="fill:#3EAF91;" d="M232.306,300.213V258.93h42.608v41.284h19.203V99.573c0-1.7-1.391-3.09-3.091-3.09h-13.022
		c-1.7,0-3.09,1.391-3.09,3.09v52.31h-42.608v-52.31c0-1.7-1.39-3.09-3.091-3.09h-13.021c-1.7,0-3.091,1.391-3.091,3.09v200.64
		H232.306z M232.306,166.883h42.608v15.682h-42.608V166.883z M232.306,197.565h42.608v15.683h-42.608V197.565z M232.306,228.249
		h42.608v15.681h-42.608V228.249z"/>
</g>
<g>
	<circle style="fill:#08375E;" cx="242.57" cy="335.78" r="35.568"/>
	<circle style="fill:#08375E;" cx="147.7" cy="335.78" r="35.569"/>
	<circle style="fill:#08375E;" cx="428.09" cy="335.78" r="35.569"/>
</g>
<path style="fill:#CB7C52;" d="M461.732,273.374H438c-4.143,0-7.5-3.358-7.5-7.5s3.357-7.5,7.5-7.5h23.732
	c4.143,0,7.5,3.358,7.5,7.5S465.875,273.374,461.732,273.374z"/>
<path style="fill:#78A7AF;" d="M498.093,378.85H63.356c-4.142,0-7.5-3.358-7.5-7.5s3.358-7.5,7.5-7.5h434.736
	c4.143,0,7.5,3.358,7.5,7.5S502.235,378.85,498.093,378.85z"/>
<path style="fill:#ABCCD3;" d="M232.306,415.517h-109.2c-4.143,0-7.5-3.358-7.5-7.5s3.357-7.5,7.5-7.5h109.199
	c4.143,0,7.5,3.358,7.5,7.5S236.448,415.517,232.306,415.517z"/>
<path style="fill:#78A7AF;" d="M483.67,415.517H283.815c-4.143,0-7.5-3.358-7.5-7.5s3.357-7.5,7.5-7.5H483.67
	c4.143,0,7.5,3.358,7.5,7.5S487.813,415.517,483.67,415.517z"/>
<g>
	<path style="fill:#E6E9ED;" d="M242.565,349.376c-7.496,0-13.594-6.099-13.594-13.595s6.098-13.595,13.594-13.595
		c7.497,0,13.596,6.099,13.596,13.595S250.063,349.376,242.565,349.376z"/>
	<path style="fill:#E6E9ED;" d="M147.696,349.376c-7.496,0-13.594-6.099-13.594-13.595s6.098-13.595,13.594-13.595
		c7.496,0,13.595,6.099,13.595,13.595S155.192,349.376,147.696,349.376z"/>
	<path style="fill:#E6E9ED;" d="M428.088,349.376c-7.496,0-13.595-6.099-13.595-13.595s6.099-13.595,13.595-13.595
		s13.594,6.099,13.594,13.595S435.584,349.376,428.088,349.376z"/>
</g>
<path style="opacity:0.1;fill:#231F20;enable-background:new    ;" d="M16.998,313.578v-80.962L0,249.613v63.964
	c0,2.833,2.318,5.151,5.15,5.151h16.998C19.316,318.728,16.998,316.411,16.998,313.578z"/>
<path style="fill:#FF9F3D;" d="M508.909,287.869h-18.431c-1.7,0-3.09,1.391-3.09,3.091v27.768h21.521c1.7,0,3.091-1.391,3.091-3.091
	V290.96C512,289.26,510.609,287.869,508.909,287.869z"/>
<g>
	<path style="fill:#3EAF91;" d="M168.063,96.483h-13.02c-1.7,0-3.09,1.391-3.09,3.09v180.955h19.201V99.573
		C171.153,97.874,169.763,96.483,168.063,96.483z"/>
	<path style="fill:#3EAF91;" d="M112.433,96.483H99.412c-1.7,0-3.09,1.391-3.09,3.09v180.955h19.201V99.573
		C115.523,97.874,114.133,96.483,112.433,96.483z"/>
</g>
<g>
</g>
<g>
</g>
<g>
</g>
<g>
</g>
<g>
</g>
<g>
</g>
<g>
</g>
<g>
</g>
<g>
</g>
<g>
</g>
<g>
</g>
<g>
</g>
<g>
</g>
<g>
</g>
<g>
</g>
</svg>
