<svg version="1" xmlns="http://www.w3.org/2000/svg" width="682.667" height="682.667" viewBox="0 0 512 512"><path d="M324.4 1.9c-1.7 1-3.7 3.4-4.3 5.2-.8 2.4-1.1 14.9-1.1 41.4 0 20.9.1 100.5 0 177v139l-2.9 1.6-2.9 1.7v32.3c-.1 27.6-.3 32.4-1.6 33.7-1.3 1.3-4.8 1.6-21.8 1.5-11.2-.1-20.8-.2-21.4-.2-.6-.1-.9-2.3-.7-5.9.5-8.3 1.1-10.2 3.1-10.2 2.2 0 11.1-4.3 13.7-6.7 1.1-1 3-3.2 4.1-4.8 4.4-6.3 4.8-9.5 4.9-41 0-29.7.1-30.1 2.4-33.8 4.3-7 2.3-15.4-4.1-17.6-1.7-.6-7.7-1.1-13.2-1.1h-10.2l.4-3.5c1-8.3-3.6-17.3-11-21.5-4.9-2.8-13.3-3.3-18.7-1.1-3.7 1.6-3.8 1.6-4.6-2.9-1-5.4-3.6-10.2-8.2-14.7-5-4.8-11.5-7.3-19-7.3-2.9 0-5.3-.4-5.3-1 0-.5-1.8-2.7-4.1-5-11.2-11.1-30.2-7.5-36.4 6.8-1.3 2.9-1.7 3.2-3.6 2.2-2.7-1.5-9.9-1.5-14.6 0-5.4 1.8-9.9 5.4-12.9 10.5-1.4 2.5-3.3 4.5-4.2 4.6-6.6.3-15.6 4.7-21.7 10.6-4.7 4.6-9.7 13.3-11 19.1l-.7 3.2H82.4c-12.3 0-15.8 1.3-18 6.6-1.7 4.2-1 9.3 1.8 12.9 1.8 2.3 1.9 4.4 2 32.8 0 21.7.4 31.5 1.3 34.1 3 8.7 9.9 15.2 18.6 17.7 2.4.7 4.6 1.4 4.7 1.5.4.3.8 4.7 1.7 20.9.5 9.3 1 17 2 30.5.2 3 .7 11.6 1 19 .7 14.8 1.7 19.5 4.5 21 1.2.7 61.7 1 172.9 1 170.7 0 171 0 172.4-2 2-2.9 2.1-70 .2-72.7-1.2-1.7-4.4-1.8-44.4-1.9-41.3 0-43.2-.1-44.6-2-1.2-1.6-1.4-7.4-1.5-33.5 0-29.3-.1-31.7-1.8-33.2-1-1-2.4-1.7-3-1.7-.9 0-1.2-43.9-1.4-179.6l-.3-179.6-3.1-2.7c-2.8-2.6-3.9-2.8-11.5-3-6.7-.1-9 .2-11.5 1.8zM88.1 339.2c0 1.3.2 3.9.3 5.8.2 1.9.7 8.9 1.1 15.5.3 6.6.8 14 1 16.5.2 2.5.6 9.6 1 15.9l.7 11.3-3.1-1.8c-5.6-3.3-6.1-6.3-6.1-37.4v-28h2.5c1.9 0 2.5.5 2.6 2.2zm190.4 27.2c-.1 32.2-.2 32.8-6.4 36-2.8 1.5-2.8 1.5-2.5-1.2.2-1.5.6-7.4.9-13.2.3-5.8.8-12.8 1-15.5.2-2.8.7-10.6 1.1-17.5.6-11.4 1-17.1 1.3-17.8.1-.1 1.1-.2 2.4-.2h2.2v29.4z"/><path d="M206.2 166c-14.3 6.4-13 27 1.9 31 14.7 4 26.7-12.3 18.4-24.9-4.5-6.8-13-9.3-20.3-6.1zm46.6 57.1c-9.4 4.8-11.1 16.5-3.4 24.2 5.1 5.1 14.7 4.8 20.2-.7 3.5-3.5 5-8.6 4-13.9-1.8-8.8-12.6-13.8-20.8-9.6z"/></svg>