<svg xmlns="http://www.w3.org/2000/svg" viewBox="0 0 512 512"><path d="M278.885 281.268a15.611 15.611 0 0110.607-14.787l12.594-4.26v-41.953H108.358c-10.629 0-19.248 8.618-19.248 19.248v62.773h189.774v-21.021h.001z" fill="#ffbb4a"/><path d="M125.888 261.398a7.5 7.5 0 01-5.302-12.805c9.178-9.174 24.11-9.175 33.288.001a7.5 7.5 0 01.001 10.607 7.498 7.498 0 01-10.606.001c-3.331-3.329-8.748-3.329-12.079.001a7.474 7.474 0 01-5.302 2.195zm57.632 12.832a7.5 7.5 0 01-5.304-12.803c9.176-9.176 24.11-9.179 33.29-.001a7.5 7.5 0 01-10.605 10.608c-3.329-3.329-8.748-3.33-12.077-.001a7.478 7.478 0 01-5.304 2.197zm59.46-12.832a7.5 7.5 0 01-5.302-12.805c9.178-9.174 24.11-9.175 33.288.001a7.5 7.5 0 01.001 10.607 7.5 7.5 0 01-10.607.001c-3.331-3.329-8.748-3.329-12.079.001a7.47 7.47 0 01-5.301 2.195z" fill="#ff9f3d"/><path d="M278.885 335v-32.711H89.11v31.335c0 .473.067.93.165 1.376h189.61z" fill="#ef5a50"/><path d="M116.166 335a6.326 6.326 0 01-.166-1.376v-94.108c0-10.63 8.619-19.248 19.248-19.248h-26.89c-10.629 0-19.248 8.618-19.248 19.248v94.108c0 .473.067.93.165 1.376h26.891z" opacity=".1" fill="#231f20"/><path d="M501.393 170.028A15.61 15.61 0 00512 155.242v-79.87c0-8.621-6.989-15.609-15.609-15.609H452.39c8.621 0 15.61 6.988 15.61 15.609v79.87a15.61 15.61 0 01-10.607 14.786l-12.592 4.259v84.695l12.592 4.26A15.608 15.608 0 01468 278.028v79.87c0 8.621-6.989 15.609-15.61 15.609h44.001c8.62 0 15.609-6.988 15.609-15.609v-79.87a15.61 15.61 0 00-10.607-14.786l-12.592-4.26v-84.695l12.592-4.259z" fill="#ffbb4a"/><path d="M460.265 170.028a15.61 15.61 0 0010.608-14.786v-79.87c0-8.621-6.989-15.609-15.61-15.609H291.366c-8.62 0-15.609 6.988-15.609 15.609v79.87a15.61 15.61 0 0010.607 14.786l12.594 4.26v84.695l-12.594 4.26a15.61 15.61 0 00-10.607 14.787V335h86.996c10.628 0 19.247 8.618 19.247 19.248v19.26h73.262c8.621 0 15.61-6.988 15.61-15.609v-79.87a15.608 15.608 0 00-10.608-14.786l-12.592-4.26v-84.695l12.593-4.26z" fill="#3eaf91"/><path d="M286.364 170.028l6.311 2.135V97.921c0-8.621 6.989-15.609 15.61-15.609h162.587v-6.939c0-8.621-6.989-15.609-15.61-15.609H291.366c-8.62 0-15.609 6.988-15.609 15.609v79.87c0 6.693 4.267 12.64 10.607 14.785z" fill="#231f20" opacity=".1"/><path d="M357.469 151.192a7.5 7.5 0 01-7.5-7.5c0-4.472-3.638-8.109-8.109-8.109-4.472 0-8.109 3.638-8.109 8.109 0 4.142-3.357 7.5-7.5 7.5s-7.5-3.358-7.5-7.5c0-12.743 10.367-23.109 23.109-23.109s23.109 10.367 23.109 23.109a7.5 7.5 0 01-7.5 7.5zM410.54 197.6a7.5 7.5 0 01-7.5-7.5c0-4.472-3.638-8.109-8.108-8.109-4.472 0-8.109 3.638-8.109 8.109 0 4.142-3.357 7.5-7.5 7.5s-7.5-3.358-7.5-7.5c0-12.743 10.367-23.109 23.109-23.109s23.108 10.367 23.108 23.109a7.5 7.5 0 01-7.5 7.5zm-35.844 49.523a7.5 7.5 0 01-7.5-7.5c0-4.472-3.638-8.109-8.108-8.109-4.473 0-8.111 3.638-8.111 8.109 0 4.142-3.357 7.5-7.5 7.5s-7.5-3.358-7.5-7.5c0-12.743 10.368-23.109 23.111-23.109 12.742 0 23.108 10.367 23.108 23.109a7.5 7.5 0 01-7.5 7.5zm49.185-124.472a7.5 7.5 0 01-7.5-7.5c0-4.471-3.638-8.108-8.109-8.108-4.472 0-8.109 3.637-8.109 8.108 0 4.142-3.357 7.5-7.5 7.5s-7.5-3.358-7.5-7.5c0-12.742 10.367-23.108 23.109-23.108s23.109 10.366 23.109 23.108a7.5 7.5 0 01-7.5 7.5zm.707 168.101a7.5 7.5 0 01-7.5-7.5c0-4.472-3.638-8.109-8.109-8.109-4.472 0-8.109 3.638-8.109 8.109 0 4.142-3.357 7.5-7.5 7.5s-7.5-3.358-7.5-7.5c0-12.743 10.367-23.109 23.109-23.109s23.109 10.367 23.109 23.109a7.5 7.5 0 01-7.5 7.5zm-72.568 24.381a7.5 7.5 0 01-7.5-7.5c0-4.472-3.638-8.109-8.109-8.109s-8.108 3.638-8.108 8.109c0 4.142-3.357 7.5-7.5 7.5s-7.5-3.358-7.5-7.5c0-12.743 10.366-23.109 23.108-23.109s23.109 10.367 23.109 23.109a7.5 7.5 0 01-7.5 7.5z" fill="#86d5b5"/><path d="M384.962 427.422v-76.371c0-10.63-8.619-19.248-19.247-19.248H19.248C8.619 331.803 0 340.421 0 351.051v76.371h384.962z" fill="#ffbb4a"/><path d="M41.723 331.803H19.248C8.619 331.803 0 340.421 0 351.051v76.371h22.475v-76.371c0-10.63 8.619-19.248 19.248-19.248z" opacity=".1" fill="#231f20"/><path d="M36.776 369.778c-1.92 0-3.84-.732-5.304-2.198a7.5 7.5 0 01.001-10.607c9.178-9.176 24.112-9.176 33.29.001a7.498 7.498 0 01.001 10.606 7.498 7.498 0 01-10.606.001c-3.331-3.331-8.75-3.329-12.079 0a7.476 7.476 0 01-5.303 2.197zm57.632 12.832a7.5 7.5 0 01-5.304-12.804c9.178-9.178 24.113-9.178 33.291 0a7.498 7.498 0 01.001 10.606 7.498 7.498 0 01-10.606.001c-3.328-3.329-8.748-3.33-12.078 0a7.478 7.478 0 01-5.304 2.197zm59.461-12.832c-1.92 0-3.84-.732-5.304-2.198a7.5 7.5 0 01.001-10.607c9.179-9.176 24.113-9.176 33.29.001a7.498 7.498 0 01.001 10.606 7.498 7.498 0 01-10.606.001c-3.332-3.331-8.751-3.329-12.079 0a7.476 7.476 0 01-5.303 2.197zm57.632 12.832a7.5 7.5 0 01-5.304-12.804c9.178-9.178 24.113-9.178 33.291 0a7.498 7.498 0 01.001 10.606 7.5 7.5 0 01-10.607.001c-3.329-3.329-8.749-3.33-12.078 0a7.474 7.474 0 01-5.303 2.197zm59.461-12.832c-1.92 0-3.84-.732-5.304-2.198a7.5 7.5 0 01.001-10.607c9.178-9.176 24.112-9.176 33.29.001a7.498 7.498 0 01.001 10.606 7.498 7.498 0 01-10.606.001c-3.331-3.331-8.75-3.329-12.079 0a7.476 7.476 0 01-5.303 2.197zm57.632 12.832a7.5 7.5 0 01-5.304-12.804c9.178-9.176 24.112-9.178 33.29 0a7.498 7.498 0 01.001 10.606 7.498 7.498 0 01-10.606.001c-3.332-3.332-8.751-3.329-12.077 0a7.478 7.478 0 01-5.304 2.197z" fill="#ff9f3d"/><path d="M0 404.759v31.334a6.415 6.415 0 005.291 6.317c4.734.843 7.789 2.801 10.746 4.695 4.126 2.64 8.021 5.132 16.04 5.132 8.018 0 11.915-2.492 16.04-5.133 3.94-2.524 8.018-5.133 16.038-5.133s12.095 2.608 16.038 5.134c4.125 2.64 8.02 5.132 16.04 5.132 8.017 0 11.911-2.492 16.037-5.133 3.942-2.524 8.018-5.133 16.035-5.133 8.021 0 12.098 2.608 16.042 5.134 4.123 2.64 8.018 5.132 16.035 5.132 8.018 0 11.915-2.492 16.041-5.133 3.939-2.524 8.017-5.133 16.037-5.133 8.018 0 12.096 2.608 16.04 5.134 4.123 2.64 8.02 5.132 16.04 5.132 8.023 0 11.918-2.494 16.043-5.136 3.945-2.522 8.02-5.13 16.04-5.13 8.018 0 12.095 2.607 16.038 5.131 4.125 2.641 8.02 5.135 16.042 5.135 8.025 0 11.92-2.494 16.046-5.136 3.942-2.522 8.02-5.13 16.037-5.13 8.021 0 12.101 2.608 16.042 5.131 4.126 2.641 8.021 5.135 16.045 5.135 8.025 0 11.921-2.494 16.046-5.135 2.957-1.892 6.018-3.85 10.752-4.692a6.419 6.419 0 005.29-6.317v-31.334H0z" fill="#34a1d7"/><path d="M38.512 447.105c-2.956-1.895-6.012-3.853-10.746-4.695a6.417 6.417 0 01-5.291-6.317v-31.334H0v31.334a6.415 6.415 0 005.291 6.317c4.734.843 7.789 2.801 10.746 4.695 4.126 2.64 8.021 5.132 16.04 5.132 4.994 0 8.39-.968 11.237-2.335-1.722-.828-3.247-1.801-4.802-2.797z" fill="#231f20" opacity=".1"/></svg>