<svg xmlns="http://www.w3.org/2000/svg" viewBox="0 0 512 512"><path d="M488.389 292.341a3.1 3.1 0 013.09-3.091h14.369v-52.621c0-2.418-1.223-5.95-2.717-7.85l-43.789-55.692c-1.494-1.9-4.693-3.455-7.111-3.455h-74.212s-.014 130.46-.019 130.582h110.389v-7.873z" fill="#ffbb4a"/><path d="M410.803 169.632h-21.859v130.217c0 .123-.014.243-.019.365h18.233a4.362 4.362 0 01-.75-2.447v-123.74a4.408 4.408 0 014.395-4.395z" opacity=".1" fill="#231f20"/><path d="M505.848 236.629c0-2.418-1.223-5.95-2.717-7.85l-22.129-28.143h-44.594a4.41 4.41 0 00-4.395 4.396v39.749a4.407 4.407 0 004.395 4.394h69.439v-12.546h.001z" fill="#d7f7ff"/><path d="M481.002 200.636H452.23v48.538h53.617v-12.545c0-2.418-1.223-5.95-2.717-7.85l-22.128-28.143z" fill="#b1e8ff"/><path d="M72 251.392V167.25l-72 72v74.328c0 2.833 2.318 5.151 5.151 5.151h483.238l.001-18.515H389l-279.165-9.655C88.731 289.829 72 272.509 72 251.392z" fill="#86d5b5"/><path d="M61.968 187.646L65 173.25l-3.032-18.01-58.326 58.325C1.639 215.568 0 219.526 0 222.358v27.255l61.968-61.967z" fill="#ffbb4a"/><path d="M388.943 117.332c0-5.666-4.636-10.302-10.302-10.302H72.27c-5.666 0-10.302 4.636-10.302 10.302v182.881h326.976V117.332h-.001z" fill="#3eaf91"/><path fill="#86d5b5" d="M77.45 128.66h296v151.86h-296z"/><path d="M75.857 117.332c0-5.666 4.636-10.302 10.302-10.302H72.27c-5.666 0-10.302 4.636-10.302 10.302v182.517c0 .123.015.243.019.365h13.89c-.004-.122-.019-.242-.019-.365l-.001-182.517z" opacity=".1" fill="#231f20"/><path d="M349.045 96.483h-13.02a3.1 3.1 0 00-3.091 3.09v180.955h19.201V99.573a3.1 3.1 0 00-3.09-3.09zm-116.739 203.73V258.93h42.608v41.284h19.203V99.573a3.1 3.1 0 00-3.091-3.09h-13.022a3.1 3.1 0 00-3.09 3.09v52.31h-42.608v-52.31c0-1.7-1.39-3.09-3.091-3.09h-13.021a3.1 3.1 0 00-3.091 3.09v200.64h19.203zm0-133.33h42.608v15.682h-42.608v-15.682zm0 30.682h42.608v15.683h-42.608v-15.683zm0 30.684h42.608v15.681h-42.608v-15.681z" fill="#3eaf91"/><g fill="#08375e"><circle cx="242.57" cy="335.78" r="35.568"/><circle cx="147.7" cy="335.78" r="35.569"/><circle cx="428.09" cy="335.78" r="35.569"/></g><path d="M461.732 273.374H438c-4.143 0-7.5-3.358-7.5-7.5s3.357-7.5 7.5-7.5h23.732c4.143 0 7.5 3.358 7.5 7.5s-3.357 7.5-7.5 7.5z" fill="#cb7c52"/><path d="M498.093 378.85H63.356a7.5 7.5 0 010-15h434.736c4.143 0 7.5 3.358 7.5 7.5s-3.357 7.5-7.499 7.5z" fill="#78a7af"/><path d="M232.306 415.517h-109.2c-4.143 0-7.5-3.358-7.5-7.5s3.357-7.5 7.5-7.5h109.199c4.143 0 7.5 3.358 7.5 7.5s-3.357 7.5-7.499 7.5z" fill="#abccd3"/><path d="M483.67 415.517H283.815c-4.143 0-7.5-3.358-7.5-7.5s3.357-7.5 7.5-7.5H483.67c4.143 0 7.5 3.358 7.5 7.5s-3.357 7.5-7.5 7.5z" fill="#78a7af"/><path d="M242.565 349.376c-7.496 0-13.594-6.099-13.594-13.595s6.098-13.595 13.594-13.595c7.497 0 13.596 6.099 13.596 13.595s-6.098 13.595-13.596 13.595zm-94.869 0c-7.496 0-13.594-6.099-13.594-13.595s6.098-13.595 13.594-13.595c7.496 0 13.595 6.099 13.595 13.595s-6.099 13.595-13.595 13.595zm280.392 0c-7.496 0-13.595-6.099-13.595-13.595s6.099-13.595 13.595-13.595 13.594 6.099 13.594 13.595-6.098 13.595-13.594 13.595z" fill="#e6e9ed"/><path d="M16.998 313.578v-80.962L0 249.613v63.964c0 2.833 2.318 5.151 5.15 5.151h16.998c-2.832 0-5.15-2.317-5.15-5.15z" opacity=".1" fill="#231f20"/><path d="M508.909 287.869h-18.431a3.1 3.1 0 00-3.09 3.091v27.768h21.521a3.1 3.1 0 003.091-3.091V290.96a3.1 3.1 0 00-3.091-3.091z" fill="#ff9f3d"/><path d="M168.063 96.483h-13.02a3.1 3.1 0 00-3.09 3.09v180.955h19.201V99.573a3.1 3.1 0 00-3.091-3.09zm-55.63 0H99.412a3.1 3.1 0 00-3.09 3.09v180.955h19.201V99.573a3.1 3.1 0 00-3.09-3.09z" fill="#3eaf91"/></svg>