<svg xmlns="http://www.w3.org/2000/svg" viewBox="0 0 512 512"><path d="M442.468 49.453V28.792c0-5.666-4.636-10.302-10.302-10.302H251.347c-5.665 0-10.301 4.636-10.301 10.302v20.66l201.422.001z" fill="#3eaf91"/><path d="M269.393 49.452v-20.66c0-5.666 4.636-10.302 10.302-10.302h-28.348c-5.665 0-10.301 4.636-10.301 10.302v20.66h28.347z" opacity=".1" fill="#231f20"/><path d="M497.022 86l.001-31.637c0-5.666-4.637-10.302-10.303-10.302l-289.93-.001c-5.666 0-10.302 4.636-10.302 10.302V86h310.534z" fill="#ffbb4a"/><path d="M224.298 44.061H196.79c-5.666 0-10.302 4.636-10.302 10.302V86H214V54.361c0-5.665 4.634-10.299 10.298-10.3z" opacity=".1" fill="#231f20"/><path d="M379.942 433.361c0-31.011 25.14-56.149 56.151-56.149a55.88 55.88 0 0125.938 6.354l26.892-265.343c.285-2.819-1.799-5.125-4.632-5.125h-290.44c-2.833 0-4.987 2.312-4.786 5.138l25.583 360.643c.201 2.826 2.683 5.139 5.516 5.139h191.685c-18.873-9.049-31.907-28.33-31.907-50.657z" fill="#ffbb4a"/><path d="M245.425 478.879l-25.583-360.643c-.2-2.826 1.954-5.138 4.787-5.138h-30.777c-2.833 0-4.987 2.312-4.786 5.138l25.583 360.643c.201 2.826 2.683 5.139 5.516 5.139h30.777c-2.835 0-5.316-2.313-5.517-5.139z" opacity=".1" fill="#231f20"/><path d="M512 117.973c0 2.833-2.318 5.151-5.15 5.151H171.293c-2.833 0-5.151-2.318-5.151-5.151V85.669c0-2.833 2.318-5.151 5.151-5.151H506.85c2.832 0 5.15 2.318 5.15 5.151v32.304z" fill="#ff9f3d"/><path d="M196.533 117.973V85.669c0-2.833 2.318-5.151 5.151-5.151h-30.391c-2.833 0-5.151 2.318-5.151 5.151v32.304c0 2.833 2.318 5.151 5.151 5.151h30.391c-2.833 0-5.151-2.318-5.151-5.151z" opacity=".1" fill="#231f20"/><path d="M496.241 433.361c0 33.218-26.931 60.148-60.147 60.148-33.221 0-60.151-26.931-60.151-60.148 0-33.22 26.931-60.149 60.151-60.149 33.216 0 60.147 26.93 60.147 60.149z" fill="#3eaf91"/><g fill="#86d5b5"><circle cx="436.09" cy="433.36" r="22.555"/><path d="M167.683 170.001h-82.34c-2.833 0-3.992 2.007-2.576 4.46l29.88 51.753h27.73l29.881-51.753c1.417-2.453.258-4.46-2.575-4.46z"/></g><path d="M124.039 226.214l-5.262-51.09c-.291-2.817-2.846-5.123-5.679-5.123H85.343c-2.833 0-3.992 2.007-2.576 4.46l29.88 51.753h11.392zM22.015 484.018a12.405 12.405 0 01-11.355-7.41C3.588 460.521 0 443.4 0 425.723v-39.691c0-69.76 56.754-126.513 126.51-126.513 69.761 0 126.515 56.753 126.515 126.513v39.691c0 17.678-3.588 34.798-10.664 50.885a12.397 12.397 0 01-11.351 7.41H22.015z" fill="#3eaf91"/><path d="M38.989 476.607C31.919 460.52 28.33 443.4 28.33 425.722v-39.691c0-64.971 49.232-118.65 112.346-125.715a126.975 126.975 0 00-14.166-.798C56.754 259.52 0 316.273 0 386.033v39.691c0 17.678 3.588 34.798 10.659 50.885a12.406 12.406 0 0011.355 7.41h28.33a12.41 12.41 0 01-11.355-7.412z" opacity=".1" fill="#231f20"/><path d="M159.567 241.001v-15.228c0-2.833-2.318-5.15-5.151-5.15h-55.81c-2.833 0-5.151 2.317-5.151 5.15v15.228h66.112z" fill="#3eaf91"/><path d="M176.147 265.565c.729 2.737-.993 4.976-3.826 4.976H80.704c-2.833 0-4.528-2.232-3.766-4.961l5.69-20.378c.762-2.729 3.703-4.961 6.536-4.961h75.091c2.833 0 5.747 2.24 6.476 4.978l5.416 20.346z" fill="#86d5b5"/><path d="M105.115 265.58l5.689-20.378c.762-2.729 3.703-4.961 6.536-4.961H89.164c-2.833 0-5.774 2.232-6.536 4.961l-5.69 20.378c-.762 2.729.933 4.961 3.766 4.961h28.177c-2.833 0-4.528-2.232-3.766-4.961z" opacity=".1" fill="#231f20"/><path d="M398.487 280.342a7.5 7.5 0 00-10.193 2.934c-9.573 17.311-27.797 28.065-47.559 28.065-27.299 0-49.95-20.249-53.743-46.514l.813.814a7.482 7.482 0 005.304 2.197 7.5 7.5 0 005.304-12.803l-13.907-13.907a7.502 7.502 0 00-10.608 0l-13.906 13.907a7.497 7.497 0 000 10.606 7.5 7.5 0 0010.606 0l1.224-1.223c3.7 34.756 33.19 61.923 68.913 61.923 25.218 0 48.472-13.72 60.685-35.806a7.5 7.5 0 00-2.933-10.193zm22.316-35.569a7.5 7.5 0 00-10.606 0l-1.066 1.067c-5.368-32.914-33.987-58.12-68.395-58.12-24.483 0-46.67 12.521-59.35 33.495a7.5 7.5 0 1012.836 7.76c9.939-16.44 27.328-26.255 46.514-26.255 26.031 0 47.833 18.412 53.093 42.894l-.84-.84a7.5 7.5 0 00-10.607-.001 7.498 7.498 0 00-.001 10.606l13.907 13.909a7.497 7.497 0 0010.608 0l13.908-13.909a7.5 7.5 0 00-.001-10.606z" fill="#cb7c52"/></svg>